<?xml version="1.0" encoding="utf-8"?>
<!-- Generator: Adobe Illustrator 16.0.0, SVG Export Plug-In . SVG Version: 6.00 Build 0)  -->
<!DOCTYPE svg PUBLIC "-//W3C//DTD SVG 1.1//EN" "http://www.w3.org/Graphics/SVG/1.1/DTD/svg11.dtd">
<svg version="1.1" id="Layer_1" xmlns="http://www.w3.org/2000/svg" xmlns:xlink="http://www.w3.org/1999/xlink" x="0px" y="0px"
	 width="156.5px" height="52.5px" viewBox="-4.5 0 156.5 52.5" enable-background="new -4.5 0 156.5 52.5" xml:space="preserve">
<g>
	<g>
		<path fill="#FFFFFF" d="M0.749,46.062v-7.516h1.173v6.528h2.583v0.985H0.749V46.062z"/>
		<path fill="#FFFFFF" d="M7.734,46.176c-1.608,0-2.417-0.654-2.417-1.753c0-1.557,1.661-1.837,3.352-1.932v-0.354
			c0-0.704-0.466-0.954-1.184-0.954c-0.528,0-1.172,0.166-1.545,0.342l-0.29-0.777c0.446-0.197,1.203-0.395,1.95-0.395
			c1.339,0,2.148,0.52,2.148,1.897v3.524C9.343,46,8.523,46.176,7.734,46.176z M8.668,43.25c-1.142,0.062-2.284,0.156-2.284,1.15
			c0,0.594,0.457,0.955,1.319,0.955c0.362,0,0.79-0.063,0.965-0.146V43.25z"/>
		<path fill="#FFFFFF" d="M20.307,46.062v-3.789c0-0.645-0.424-1.006-1.068-1.006c-0.438,0-0.799,0.135-1.027,0.371v4.422h-1.143
			V42.17c0-0.562-0.445-0.902-1.142-0.902c-0.383,0-0.714,0.063-0.955,0.164v4.629h-1.13v-5.312c0.55-0.229,1.256-0.395,2.013-0.395
			c0.881,0,1.474,0.277,1.787,0.604c0.352-0.302,1.027-0.604,1.857-0.604c1.193,0,1.94,0.692,1.94,1.806v3.901h-1.132V46.062z"/>
		<path fill="#FFFFFF" d="M27.453,43.239l-3.716,0.519c0.113,1.006,0.768,1.516,1.713,1.516c0.56,0,1.162-0.135,1.547-0.344
			l0.332,0.851c-0.437,0.23-1.183,0.396-1.951,0.396c-1.765,0-2.751-1.132-2.751-2.917c0-1.712,0.955-2.905,2.522-2.905
			c1.453,0,2.315,0.955,2.315,2.459C27.463,42.949,27.463,43.094,27.453,43.239z M25.127,41.184c-0.872,0-1.443,0.664-1.463,1.825
			l2.709-0.373C26.361,41.662,25.875,41.184,25.127,41.184z"/>
		<path fill="#FFFFFF" d="M27.538,48.365v-0.944c0.655-0.207,1.246-0.789,1.246-2.004v-4.95h1.142v4.95
			C29.925,47.391,28.804,48.148,27.538,48.365z M29.354,39.45c-0.373,0-0.674-0.291-0.674-0.644c0-0.354,0.301-0.646,0.674-0.646
			c0.374,0,0.675,0.291,0.675,0.646C30.029,39.159,29.728,39.45,29.354,39.45z"/>
		<path fill="#FFFFFF" d="M33.602,46.176c-1.589,0-2.46-1.256-2.46-2.917c0-1.659,0.871-2.905,2.46-2.905
			c1.586,0,2.46,1.246,2.46,2.905C36.062,44.92,35.188,46.176,33.602,46.176z M33.602,41.256c-0.882,0-1.319,0.789-1.319,1.994
			c0,1.204,0.438,2.004,1.319,2.004c0.882,0,1.318-0.8,1.318-2.004C34.919,42.044,34.483,41.256,33.602,41.256z"/>
		<path fill="#FFFFFF" d="M39.832,41.338c-0.167-0.041-0.364-0.062-0.572-0.062c-0.319,0-0.663,0.055-0.881,0.146v4.642h-1.132
			v-5.313c0.541-0.228,1.338-0.396,2.171-0.396c0.248,0,0.465,0.013,0.632,0.041L39.832,41.338z"/>
		<path fill="#FFFFFF" d="M46.331,38.807c-0.643,0-1.108,0.271-1.108,0.967v0.693h1.162v0.852h-1.162v4.744h-1.111v-4.744h-0.736
			v-0.852h0.736v-0.693c0-1.289,0.871-1.879,2.023-1.879c0.112,0,0.27,0.011,0.353,0.021v0.893h-0.157V38.807z"/>
		<path fill="#FFFFFF" d="M49.487,46.176c-1.588,0-2.46-1.256-2.46-2.917c0-1.659,0.872-2.905,2.46-2.905
			c1.587,0,2.46,1.246,2.46,2.905C51.947,44.92,51.074,46.176,49.487,46.176z M49.487,41.256c-0.883,0-1.318,0.789-1.318,1.994
			c0,1.204,0.436,2.004,1.318,2.004c0.882,0,1.317-0.8,1.317-2.004C50.804,42.044,50.371,41.256,49.487,41.256z"/>
		<path fill="#FFFFFF" d="M55.717,41.338c-0.166-0.041-0.363-0.062-0.57-0.062c-0.322,0-0.665,0.055-0.883,0.146v4.642h-1.131
			v-5.313c0.539-0.228,1.338-0.396,2.17-0.396c0.248,0,0.466,0.013,0.633,0.041L55.717,41.338z"/>
		<path fill="#FFFFFF" d="M63.37,46.062v-3.789c0-0.645-0.427-1.006-1.069-1.006c-0.437,0-0.801,0.135-1.029,0.371v4.422H60.13
			V42.17c0-0.562-0.445-0.902-1.141-0.902c-0.384,0-0.716,0.063-0.955,0.164v4.629h-1.131v-5.312
			c0.55-0.229,1.256-0.395,2.012-0.395c0.884,0,1.475,0.277,1.787,0.604c0.352-0.302,1.027-0.604,1.857-0.604
			c1.192,0,1.939,0.692,1.939,1.806v3.901H63.37V46.062z"/>
		<path fill="#FFFFFF" d="M68.044,46.176c-1.609,0-2.418-0.654-2.418-1.753c0-1.557,1.66-1.837,3.352-1.932v-0.354
			c0-0.704-0.467-0.954-1.184-0.954c-0.529,0-1.172,0.166-1.547,0.342l-0.289-0.777c0.447-0.197,1.203-0.395,1.949-0.395
			c1.34,0,2.15,0.52,2.15,1.897v3.524C69.653,46,68.832,46.176,68.044,46.176z M68.978,43.25c-1.141,0.062-2.283,0.156-2.283,1.15
			c0,0.594,0.457,0.955,1.318,0.955c0.363,0,0.789-0.063,0.965-0.146V43.25z"/>
		<path fill="#FFFFFF" d="M76.673,46.176c-1.743,0-2.73-1.089-2.73-2.863c0-1.713,0.915-2.896,2.605-2.896
			c0.343,0,0.718,0.073,0.9,0.136v-2.636h1.143v7.864C78.221,45.988,77.462,46.176,76.673,46.176z M77.45,41.412
			c-0.146-0.062-0.498-0.123-0.798-0.123c-1.028,0-1.569,0.85-1.569,2.023c0,1.223,0.551,1.961,1.569,1.961
			c0.3,0,0.662-0.072,0.798-0.146V41.412z"/>
		<path fill="#FFFFFF" d="M84.605,43.239l-3.717,0.519c0.113,1.006,0.769,1.516,1.713,1.516c0.56,0,1.162-0.135,1.545-0.344
			l0.332,0.851c-0.436,0.23-1.182,0.396-1.951,0.396c-1.764,0-2.75-1.132-2.75-2.917c0-1.712,0.955-2.905,2.523-2.905
			c1.451,0,2.313,0.955,2.313,2.459C84.616,42.949,84.616,43.094,84.605,43.239z M82.279,41.184c-0.872,0-1.442,0.664-1.465,1.825
			l2.709-0.373C83.516,41.662,83.025,41.184,82.279,41.184z"/>
		<path fill="#FFFFFF" d="M90.544,46.124c-0.342,0-0.726-0.071-0.912-0.135v2.305h-1.131v-7.545c0.396-0.208,1.151-0.394,1.92-0.394
			c1.744,0,2.722,1.09,2.722,2.86C93.141,44.93,92.236,46.124,90.544,46.124z M90.439,41.247c-0.311,0-0.651,0.071-0.809,0.146
			v3.728c0.145,0.063,0.508,0.125,0.809,0.125c1.027,0,1.568-0.853,1.568-2.022C92.009,42.003,91.458,41.247,90.439,41.247z"/>
		<path fill="#FFFFFF" d="M98.954,43.239l-3.715,0.519c0.112,1.006,0.77,1.516,1.713,1.516c0.563,0,1.162-0.135,1.547-0.344
			l0.332,0.851c-0.438,0.23-1.185,0.396-1.953,0.396c-1.764,0-2.75-1.132-2.75-2.917c0-1.712,0.955-2.905,2.522-2.905
			c1.453,0,2.314,0.955,2.314,2.459C98.966,42.949,98.966,43.094,98.954,43.239z M96.63,41.184c-0.871,0-1.442,0.664-1.463,1.825
			l2.709-0.373C97.864,41.662,97.376,41.184,96.63,41.184z"/>
		<path fill="#FFFFFF" d="M102.673,46.176c-1.743,0-2.729-1.089-2.729-2.863c0-1.713,0.912-2.896,2.604-2.896
			c0.343,0,0.718,0.073,0.9,0.136v-2.636h1.145v7.864C104.221,45.988,103.462,46.176,102.673,46.176z M103.45,41.412
			c-0.146-0.062-0.496-0.123-0.798-0.123c-1.026,0-1.567,0.85-1.567,2.023c0,1.223,0.551,1.961,1.567,1.961
			c0.302,0,0.662-0.072,0.798-0.146V41.412z"/>
		<path fill="#FFFFFF" d="M106.589,39.45c-0.373,0-0.674-0.291-0.674-0.644c0-0.354,0.301-0.646,0.674-0.646
			s0.675,0.291,0.675,0.646C107.264,39.159,106.962,39.45,106.589,39.45z M106.02,46.062v-5.597h1.143v5.597H106.02z"/>
		<path fill="#FFFFFF" d="M111.167,41.338c-0.166-0.041-0.36-0.062-0.571-0.062c-0.318,0-0.66,0.055-0.882,0.146v4.642h-1.131
			v-5.313c0.539-0.228,1.338-0.396,2.17-0.396c0.248,0,0.465,0.013,0.634,0.041L111.167,41.338z"/>
		<path fill="#FFFFFF" d="M117.305,46.176c-1.246,0-2.459-0.894-2.459-2.917c0-2.021,1.213-2.905,2.459-2.905
			c0.61,0,1.09,0.155,1.434,0.387l-0.373,0.816c-0.23-0.166-0.572-0.269-0.916-0.269c-0.746,0-1.432,0.591-1.432,1.961
			s0.707,1.972,1.432,1.972c0.344,0,0.686-0.104,0.916-0.271l0.373,0.842C118.384,46.029,117.915,46.176,117.305,46.176z"/>
		<path fill="#FFFFFF" d="M121.854,46.176c-1.588,0-2.459-1.256-2.459-2.917c0-1.659,0.871-2.905,2.459-2.905
			s2.461,1.246,2.461,2.905C124.312,44.92,123.439,46.176,121.854,46.176z M121.854,41.256c-0.881,0-1.318,0.789-1.318,1.994
			c0,1.204,0.438,2.004,1.318,2.004c0.883,0,1.317-0.8,1.317-2.004C123.171,42.044,122.734,41.256,121.854,41.256z"/>
		<path fill="#FFFFFF" d="M131.964,46.062v-3.789c0-0.645-0.424-1.006-1.067-1.006c-0.437,0-0.799,0.135-1.027,0.371v4.422h-1.143
			V42.17c0-0.562-0.445-0.902-1.142-0.902c-0.385,0-0.719,0.063-0.955,0.164v4.629h-1.131v-5.312
			c0.551-0.229,1.256-0.395,2.015-0.395c0.883,0,1.473,0.277,1.784,0.604c0.354-0.302,1.025-0.604,1.854-0.604
			c1.193,0,1.939,0.692,1.939,1.806v3.901h-1.131v0.002H131.964L131.964,46.062z"/>
		<path fill="#FFFFFF" d="M135.093,39.45c-0.372,0-0.674-0.291-0.674-0.644c0-0.354,0.302-0.646,0.674-0.646
			c0.373,0,0.677,0.291,0.677,0.646C135.77,39.159,135.466,39.45,135.093,39.45z M134.521,46.062v-5.597h1.142v5.597H134.521z"/>
		<path fill="#FFFFFF" d="M139.609,46.176c-1.745,0-2.729-1.089-2.729-2.863c0-1.713,0.914-2.896,2.604-2.896
			c0.343,0,0.716,0.073,0.902,0.136v-2.636h1.141v7.864C141.154,45.988,140.398,46.176,139.609,46.176z M140.389,41.412
			c-0.146-0.062-0.498-0.123-0.8-0.123c-1.026,0-1.565,0.85-1.565,2.023c0,1.223,0.549,1.961,1.565,1.961
			c0.302,0,0.664-0.072,0.8-0.146V41.412z"/>
		<path fill="#FFFFFF" d="M145.068,46.176c-1.606,0-2.416-0.654-2.416-1.753c0-1.557,1.66-1.837,3.354-1.932v-0.354
			c0-0.704-0.469-0.954-1.187-0.954c-0.526,0-1.17,0.166-1.547,0.342l-0.289-0.777c0.447-0.197,1.203-0.395,1.949-0.395
			c1.342,0,2.15,0.52,2.15,1.897v3.524C146.682,46,145.859,46.176,145.068,46.176z M146.007,43.25
			c-1.146,0.062-2.284,0.156-2.284,1.15c0,0.594,0.457,0.955,1.317,0.955c0.36,0,0.789-0.063,0.967-0.146V43.25L146.007,43.25z"/>
	</g>
	<g>
		<path opacity="0.4" fill="#333333" enable-background="new    " d="M139.854,11.313c-2.776,0-5.225,0.514-6.748,0.929l2.107-4.751
			c0.227-0.508,0.18-1.091-0.123-1.557c-0.303-0.467-0.816-0.746-1.374-0.746h-7.622c-0.701,0-1.324,0.447-1.552,1.113l-1.438,4.248
			L121.666,6.3c-0.227-0.665-0.85-1.112-1.551-1.112h-7.623c-0.559,0-1.07,0.279-1.372,0.745c-0.304,0.467-0.351,1.049-0.125,1.557
			l2.81,6.329c-0.147-0.256-0.365-0.476-0.643-0.625c-1.893-1.012-4.161-1.525-6.744-1.525c-4.277,0-7.287,1.739-8.348,4.731
			c-2.157-2.434-4.854-4.731-8.625-4.731c-3.877,0-6.988,1.791-8.737,4.909V5.32c0-0.903-0.733-1.638-1.638-1.638h-5.63
			c-0.904,0-1.639,0.735-1.639,1.638v6.618c-0.237-0.019-0.466-0.028-0.684-0.028c-4.007,0-7.083,1.67-8.783,4.673v-2.867
			c0-0.903-0.735-1.638-1.638-1.638h-0.217c1.299-0.812,2.16-2.205,2.16-3.79c0-2.521-2.143-4.573-4.777-4.573
			c-1.391,0-2.676,0.597-3.556,1.558c-0.012-0.445-0.134,0.246-0.433-0.042c-0.295-0.284-0.764-1.55-1.204-1.55h-5.63
			c-0.903,0-1.638,0.735-1.638,1.638v6.618c-0.238-0.019-0.469-0.028-0.685-0.028c-4.279,0-7.449,1.843-9.072,5.227
			c-1.767-1.6-4.752-5.468-8.921-5.468c-2.921,0-5.468,1.01-7.323,2.875C19.143,8.86,14.777,5.355,7.878,5.355
			c-3.114,0-5.935,0.506-8.157,1.463c-0.601,0.259-0.99,0.85-0.99,1.504v23.792c0,0.901,0.735,1.637,1.638,1.637h5.699
			c0.903,0,1.638-0.733,1.638-1.637v-7.446c0.104,0.003,0.207,0.004,0.308,0.004c3.456,0,6.285-0.882,8.286-2.566
			c-0.014,0.261-0.021,0.525-0.021,0.789c0,6.947,4.277,11.263,11.162,11.263c2.922,0,5.948-0.57,7.899-1.486
			c0.767-0.361,1.494-1.658,1.194-2.451l-1.93-3.772c-0.163-0.435-0.504-0.779-0.936-0.949c-0.027-0.011-0.054-0.021-0.081-0.029
			l1.037-0.136c0.836,5.62,4.771,8.827,10.878,8.827c3.1,0,6.137-0.582,7.927-1.521c0.028-0.015,0.048-0.037,0.075-0.054
			c0.205,0.672,0.823,1.164,1.56,1.164h5.632c0.903,0,1.638-0.733,1.638-1.637V29.34c1.781,3.133,5.086,4.821,9.567,4.821
			c3.098,0,6.135-0.582,7.927-1.521c0.542-0.283,0.879-0.84,0.879-1.451v-1.953c1.749,3.129,4.861,4.925,8.738,4.925
			c3.302,0,6.021-1.308,7.83-3.562c-0.303,0.783,0.041,1.678,0.797,2.056c1.39,0.694,4.05,1.506,6.978,1.506
			c5.921,0,9.454-2.819,9.454-7.543c0-4.938-4.148-6.386-6.38-7.164l-0.146-0.05c-0.449-0.157-0.748-0.277-0.942-0.361
			c0.766-0.04,2.28,0.458,2.85,0.792c0.399,0.239,0.908,0.288,1.333,0.149c0.445-0.143,0.809-0.469,0.997-0.897l1.673-3.789
			c0.168-0.381,0.176-0.796,0.053-1.169l3.963,8.928v9.554c0,0.904,0.734,1.639,1.638,1.639h7.126c0.902,0,1.639-0.734,1.639-1.639
			v-9.554l2.694-6.077l2.038,2.445c0.141,0.391,0.725-0.188,1.092,0c-2.367,1.382-4.997,4.407-4.997,7.132
			c0,3.721,1.923,8.155,11.076,8.155c3.197,0,6.628-0.644,8.535-1.603c0.558-0.278,0.903-0.84,0.903-1.463V20.361
			C149.648,14.272,146.445,11.313,139.854,11.313z M99.693,23.801c1.367,1.258,3.135,1.893,4.395,2.346
			c0.383,0.137,0.656,0.246,0.855,0.334c-0.021,0.002-0.043,0.002-0.063,0.002c-0.94,0-2.827-0.539-3.444-0.918
			c-0.258-0.159-0.555-0.242-0.856-0.242c-0.17,0-0.339,0.025-0.503,0.078c-0.238,0.076-0.452,0.207-0.628,0.375
			C99.572,25.145,99.656,24.484,99.693,23.801z M89.445,26.38c-1.127,0-1.362-1.931-1.362-3.551c0-1.604,0.235-3.515,1.362-3.515
			c1.131,0,1.367,1.912,1.367,3.515C90.812,24.449,90.576,26.38,89.445,26.38z M71.8,19.383v7.137c0,0-0.001,0-0.002,0
			c-0.507,0-2.049,0-2.049-3.62c0-1.605,0.344-3.517,1.981-3.517C71.753,19.382,71.777,19.382,71.8,19.383z M55.308,12.08h-0.243
			c-0.274,0-0.529,0.074-0.757,0.194v-0.99C54.596,11.596,54.941,11.853,55.308,12.08z M45.399,19.383v7.137
			c-0.507,0-2.048,0-2.048-3.62c0-1.605,0.344-3.517,1.98-3.517C45.354,19.382,45.377,19.382,45.399,19.383z M27.883,26.516
			c-0.314,0-0.758-0.024-1.203-0.141l5.448-0.713C30.964,26.191,29.364,26.516,27.883,26.516z M26.588,18.903
			c0.495,0,0.823,0.166,1.028,0.537l-2.55,0.322C25.471,19.008,26.103,18.903,26.588,18.903z M10.437,15.082
			c0,0.958-0.208,1.98-2.698,1.98c-0.012,0-0.023,0-0.035,0v-4.09c0.08-0.004,0.16-0.007,0.241-0.007
			C10.253,12.965,10.437,13.882,10.437,15.082z M139.891,25.982v0.721c-0.672-0.016-1.07-0.176-1.074-0.403
			C138.823,26.291,138.971,26.117,139.891,25.982z"/>
		<path fill="#FFFFFF" d="M34.403,25.672c0.835,5.619,4.447,7.809,10.554,7.809c3.1,0,6.137-0.582,7.927-1.521
			c0.028-0.016,0.048-0.037,0.075-0.053c0.205,0.672,0.823,1.164,1.56,1.164h5.632c0.903,0,1.638-0.734,1.638-1.639v-2.773
			c1.781,3.133,5.086,4.82,9.567,4.82c3.098,0,6.135-0.582,7.927-1.52c0.542-0.284,0.879-0.839,0.879-1.451v-1.951
			c1.749,3.127,4.861,4.922,8.738,4.922c3.302,0,6.021-1.306,7.83-3.561c-0.304,0.782,0.041,1.677,0.797,2.055
			c1.39,0.694,4.05,1.506,6.978,1.506c5.92,0,9.454-2.818,9.454-7.543c0-4.938-4.148-6.385-6.38-7.164 M107.579,18.773
			c2.239,1.337,2.315,1.181,3.108,0.723c0.232-0.135,0.72-0.49,0.982-1.089l1.673-3.788c0.168-0.381,0.175-0.797,0.054-1.169
			l3.961,8.928v9.556c0,0.901,0.734,1.637,1.639,1.637h7.125c0.902,0,1.639-0.734,1.639-1.637v-9.556l2.695-6.076l0.898,2.505
			c0.14,0.391,0.427,0.717,0.795,0.905c-2.367,1.382-3.562,3.442-3.562,6.167c0,3.721,1.922,8.154,11.076,8.154
			c3.196,0,6.627-0.643,8.535-1.6c0.558-0.279,0.903-0.842,0.903-1.466V19.679c0-6.089-3.203-9.048-9.795-9.048
			c-2.777,0-5.226,0.514-6.75,0.929l2.108-4.751c0.228-0.508,0.181-1.091-0.123-1.557c-0.304-0.467-0.815-0.746-1.374-0.746h-7.622
			c-0.7,0-1.325,0.447-1.552,1.113l-1.438,4.248l-1.438-4.248c-0.226-0.666-0.851-1.112-1.552-1.112h-7.623
			c-0.557,0-1.069,0.279-1.371,0.745c-0.305,0.467-0.352,1.049-0.125,1.557l2.809,6.329c-0.146-0.256-0.363-0.476-0.642-0.624
			c-1.892-1.012-4.161-1.525-6.744-1.525c-4.277,0-7.287,1.739-8.349,4.729c-1.783-3.027-4.854-4.729-8.623-4.729
			c-3.877,0-6.989,1.79-8.738,4.909V4.638C80.162,3.735,79.428,3,78.523,3h-5.63c-0.903,0-1.638,0.735-1.638,1.638v6.618
			c-0.237-0.019-0.466-0.028-0.684-0.028c-4.007,0-7.083,1.67-8.783,4.673v-2.866c0-0.903-0.735-1.638-1.638-1.638h-0.217
			c1.299-0.812,2.16-2.205,2.16-3.79c0-2.521-2.143-4.573-4.777-4.573c-1.39,0-2.675,0.597-3.556,1.558
			C53.736,3.71,53.011,3,52.124,3h-5.63c-0.903,0-1.638,0.735-1.638,1.638v6.618c-0.238-0.018-0.469-0.028-0.685-0.028
			c-4.279,0-7.449,1.843-9.072,5.227c-1.514-3.452-4.752-5.468-8.921-5.468c-2.921,0-5.468,1.01-7.323,2.875
			c-0.257-5.684-4.623-9.188-11.522-9.188c-3.114,0-5.935,0.506-8.157,1.463c-0.601,0.259-0.99,0.851-0.99,1.504v23.791
			c0,0.904,0.735,1.64,1.638,1.64h5.7c0.903,0,1.638-0.734,1.638-1.64v-7.444c0.104,0.003,0.207,0.004,0.308,0.004
			c3.456,0,6.285-0.882,8.286-2.566c-0.014,0.262-0.021,0.525-0.021,0.79c0,6.947,4.276,11.264,11.162,11.264
			c2.921,0,5.948-0.569,7.899-1.487c0.767-0.361,1.396-1.67,1.097-2.464l-1.488-3.854"/>
		<g>
			<path fill="#262122" d="M7.468,22.353c-0.683,0-1.502-0.068-1.946-0.138v9.217h-5.7V7.641c1.979-0.853,4.54-1.33,7.509-1.33
				c6.417,0,9.897,3.173,9.897,8.088C17.229,18.973,13.986,22.353,7.468,22.353z M7.399,10.645c-0.718,0-1.433,0.136-1.879,0.273
				v6.961c0.376,0.068,1.025,0.139,1.673,0.139c2.902,0,4.336-1.298,4.336-3.619C11.529,11.84,10.129,10.645,7.399,10.645z"/>
			<path fill="#262122" d="M34.335,22.967l-11.469,1.501c0.445,2.015,2.185,3.003,4.471,3.003c1.844,0,3.822-0.443,5.188-1.128
				l1.57,4.165c-1.672,0.786-4.437,1.331-7.201,1.331c-6.382,0-9.524-4.164-9.524-9.625c0-5.632,3.277-9.59,8.806-9.59
				c5.358,0,8.226,3.584,8.226,8.635C34.403,21.839,34.403,22.385,34.335,22.967z M26.042,16.583c-1.981,0-3.516,1.367-3.55,4.404
				l6.484-0.819C28.977,17.847,27.85,16.583,26.042,16.583z"/>
			<path fill="#262122" d="M44.957,31.842c-6.11,0-9.419-3.414-9.419-9.557c0-5.701,2.935-9.419,8.633-9.419
				c0.819,0,1.81,0.17,2.322,0.341V4.638h5.63v25.871C50.69,31.26,47.959,31.842,44.957,31.842z M46.492,17.334
				c-0.307-0.135-1.059-0.272-1.706-0.272c-2.39,0-3.618,2.083-3.618,5.155c0,3.446,1.332,5.258,3.685,5.258
				c0.615,0,1.333-0.104,1.638-0.242L46.492,17.334L46.492,17.334z"/>
			<path fill="#262122" d="M57.316,10.508c-1.706,0-3.106-1.297-3.106-2.901c0-1.605,1.401-2.935,3.106-2.935
				c1.707,0,3.14,1.33,3.14,2.935S59.023,10.508,57.316,10.508z M54.519,31.432V13.035h5.632v18.396H54.519L54.519,31.432z"/>
			<path fill="#262122" d="M71.356,31.842c-6.11,0-9.421-3.414-9.421-9.557c0-5.701,2.935-9.419,8.637-9.419
				c0.818,0,1.808,0.17,2.321,0.341V4.638h5.63v25.871C77.089,31.26,74.358,31.842,71.356,31.842z M72.892,17.334
				c-0.309-0.135-1.059-0.272-1.707-0.272c-2.39,0-3.619,2.083-3.619,5.155c0,3.446,1.331,5.258,3.686,5.258
				c0.614,0,1.332-0.104,1.64-0.242V17.334z"/>
			<path fill="#262122" d="M88.9,31.842c-5.493,0-8.635-4.129-8.635-9.625s3.142-9.591,8.635-9.591c5.494,0,8.636,4.095,8.636,9.591
				S94.396,31.842,88.9,31.842z M88.9,16.993c-1.979,0-3.002,1.775-3.002,5.153c0,3.381,1.022,5.189,3.002,5.189
				s3.004-1.812,3.004-5.189C91.904,18.768,90.882,16.993,88.9,16.993z"/>
			<path fill="#262122" d="M104.505,31.842c-2.458,0-4.879-0.65-6.246-1.333l1.774-4.231c0.89,0.547,3.072,1.16,4.302,1.16
				c1.297,0,2.116-0.613,2.116-1.535c0-1.058-1.024-1.5-2.355-1.979c-2.185-0.785-5.359-1.911-5.359-5.667
				c0-3.447,2.63-5.631,7.137-5.631c2.525,0,4.504,0.546,5.973,1.332l-1.673,3.788c-0.753-0.443-2.39-1.024-3.549-1.024
				c-1.329,0-2.116,0.614-2.116,1.502c0,1.126,1.024,1.572,2.391,2.047c2.25,0.787,5.425,1.811,5.425,5.667
				C112.32,29.553,109.729,31.842,104.505,31.842z"/>
			<path fill="#E02F34" d="M126.121,22.029v9.902h-7.125v-9.902l-7.051-15.886h7.623l2.955,8.728h0.068l2.955-8.728h7.622
				L126.121,22.029z"/>
			<path fill="#E02F34" d="M139.664,32.395c-6.341,0-9.438-2.279-9.438-6.518c0-4.951,4.982-6.234,10.756-6.59v-0.499
				c0-1.032-0.785-1.675-2.527-1.675c-1.889,0-4.096,0.568-5.561,1.139l-1.633-4.559c1.777-0.677,4.842-1.425,8.047-1.425
				c5.594,0,8.157,2.137,8.157,7.411v11.288C145.969,31.718,142.906,32.395,139.664,32.395z M140.982,23.525
				c-2.778,0.106-4.347,0.5-4.347,2.174c0,1.318,1.179,1.96,2.814,1.96c0.606,0,1.247-0.038,1.53-0.144v-3.99H140.982z"/>
		</g>
	</g>
</g>
</svg>
